{"title":"Ashiana - Nargis - Raj Kapoor 1952 DvDrip 1CD X264 AAC","uid":8323390,"size":432480926,"categoryP":"video","categoryS":"movies","magnet":"?xt=urn:btih:f4c8fa53de99a374167c1bb9541aa11b7cb38f69&amp;dn=Ashiana+-+Nargis+-+Raj+Kapoor+1952+DvDrip+1CD+X264+AAC&amp;tr=udp%3A%2F%2Ftracker.openbittorrent.com%3A80&amp;tr=udp%3A%2F%2Fopen.demonii.com%3A1337&amp;tr=udp%3A%2F%2Ftracker.coppersurfer.tk%3A6969&amp;tr=udp%3A%2F%2Fexodus.desync.com%3A6969","seeders":0,"leechers":1,"uploader":"Bclassics","files":1,"time":1364743197,"description":"\n-: Cover :- \n &lt;a href=&quot;\nhttp://desibbrg.net/imghost/show.php?img=430618_Ashiana.Nargis.Raj.Kapoor.1952.DvDrip.1CD.X264.AAC.RRG.DADA.jpg.html&quot; rel=&quot;nofollow&quot; target=&quot;_NEW&quot;&gt;\nhttp://desibbrg.net/imghost/show.php?img=430618_Ashiana.Nargis.Raj.Kapoor.1952.DvDrip.1CD.X264.AAC.RRG.DADA.jpg.html&lt;/a&gt;\n\n-: Screens :-\n &lt;a href=&quot;\nhttp://desibbrg.net/imghost/show.php?img=430614_Ashiana.Nargis.Raj.Kapoor.1952.DvDrip.1CD.X264.AAC.RRG.DADA.DBBIANS.Com.mp4snapshot00.00.022013.03.3114.51.36.jpg.html&quot; rel=&quot;nofollow&quot; target=&quot;_NEW&quot;&gt;\nhttp://desibbrg.net/imghost/show.php?img=430614_Ashiana.Nargis.Raj.Kapoor.1952.DvDrip.1CD.X264.AAC.RRG.DADA.DBBIANS.Com.mp4snapshot00.00.022013.03.3114.51.36.jpg.html&lt;/a&gt; &lt;a href=&quot;\nhttp://desibbrg.net/imghost/show.php?img=430615_Ashiana.Nargis.Raj.Kapoor.1952.DvDrip.1CD.X264.AAC.RRG.DADA.DBBIANS.Com.mp4snapshot00.00.082013.03.3114.51.55.jpg.html&quot; rel=&quot;nofollow&quot; target=&quot;_NEW&quot;&gt;\nhttp://desibbrg.net/imghost/show.php?img=430615_Ashiana.Nargis.Raj.Kapoor.1952.DvDrip.1CD.X264.AAC.RRG.DADA.DBBIANS.Com.mp4snapshot00.00.082013.03.3114.51.55.jpg.html&lt;/a&gt; &lt;a href=&quot;\nhttp://desibbrg.net/imghost/show.php?img=430616_Ashiana.Nargis.Raj.Kapoor.1952.DvDrip.1CD.X264.AAC.RRG.DADA.DBBIANS.Com.mp4snapshot00.30.272013.03.3114.54.04.jpg.html&quot; rel=&quot;nofollow&quot; target=&quot;_NEW&quot;&gt;\nhttp://desibbrg.net/imghost/show.php?img=430616_Ashiana.Nargis.Raj.Kapoor.1952.DvDrip.1CD.X264.AAC.RRG.DADA.DBBIANS.Com.mp4snapshot00.30.272013.03.3114.54.04.jpg.html&lt;/a&gt; &lt;a href=&quot;\nhttp://desibbrg.net/imghost/show.php?img=430617_Ashiana.Nargis.Raj.Kapoor.1952.DvDrip.1CD.X264.AAC.RRG.DADA.DBBIANS.Com.mp4thumbs2013.03.3114.54.09.jpg.html&quot; rel=&quot;nofollow&quot; target=&quot;_NEW&quot;&gt;\nhttp://desibbrg.net/imghost/show.php?img=430617_Ashiana.Nargis.Raj.Kapoor.1952.DvDrip.1CD.X264.AAC.RRG.DADA.DBBIANS.Com.mp4thumbs2013.03.3114.54.09.jpg.html&lt;/a&gt;\n\n-: Info :-  \n\n\nGeneral\n\nFormat                           : Mp4 Video\nFile size                        : 412 MiB\nDuration                         : 1h 44mn\nOverall bit rate                 : 554 Kbps\n\n\nVideo\nFormat                           : AVC\nFormat/Info                      : Advanced Video Codec\nFormat profile                   : &lt;a class=&quot;__cf_email__&quot; href=&quot;/cdn-cgi/l/email-protection&quot; data-cfemail=&quot;2e634f47406e621d001e&quot;&gt;[email&amp;#160;protected]&lt;/a&gt;&lt;script cf-hash='f9e31' type=&quot;text/javascript&quot;&gt;\n/* &lt;![CDATA[ */!function(){try{var t=&quot;currentScript&quot;in document?document.currentScript:function(){for(var t=document.getElementsByTagName(&quot;script&quot;),e=t.length;e--;)if(t[e].getAttribute(&quot;cf-hash&quot;))return t[e]}();if(t&amp;&amp;t.previousSibling){var e,r,n,i,c=t.previousSibling,a=c.getAttribute(&quot;data-cfemail&quot;);if(a){for(e=&quot;&quot;,r=parseInt(a.substr(0,2),16),n=2;a.length-n;n+=2)i=parseInt(a.substr(n,2),16)^r,e+=String.fromCharCode(i);e=document.createTextNode(e),c.parentNode.replaceChild(e,c)}}}catch(u){}}();/* ]]&gt; */&lt;/script&gt;\nFormat settings, CABAC           : Yes\nFormat settings, ReFrames        : 3 frames\nDuration                         : 1h 44mn\nBit rate                         : 417 Kbps\nWidth                            : 656 pixels\nHeight                           : 480 pixels\nDisplay aspect ratio             : 4:3\nFrame rate mode                  : Constant\nFrame rate                       : 25.000 fps\nColor space                      : YUV\nChroma subsampling               : 4:2:0\nBit depth                        : 8 bits\nScan type                        : Progressive\nBits/(Pixel*Frame)               : 0.053\nStream size                      : 311 MiB (75%)\n\nAudio\nFormat                           : AAC\nFormat/Info                      : Advanced Audio Codec\nFormat version                   : Version 4\nFormat profile                   : LC\nFormat settings, SBR             : No\nDuration                         : 1h 44mn\nBit rate                         : 129 Kbps\nChannel(s)                       : 2 channels\nChannel positions                : Front: L R\nSampling rate                    : 44.1 KHz\nBit depth                        : 16 bits\nStream size                      : 95.8 MiB (23%)\n\n\n &lt;a href=&quot;\nhttp://www.imdb.com/title/tt0178205/&quot; rel=&quot;nofollow&quot; target=&quot;_NEW&quot;&gt;\nhttp://www.imdb.com/title/tt0178205/&lt;/a&gt;\n\n\nCast &amp; Crew\nCast\n\n    Nargis\n    Raj Kapoor\n    Om Sharma\n    Shivraj\n    Mohana\n    Kusum\n    Randhu\n    Baby Sadana\n    Gaurang\n\nDirectors\n\n    B.Trilochan\n\nProducers\n\n    B.Swinder Sabarwal\n\nWriters\n\n    Arjun Dev Rashik\n\n","torrent":{"xt":"urn:btih:f4c8fa53de99a374167c1bb9541aa11b7cb38f69","amp;dn":"Ashiana+-+Nargis+-+Raj+Kapoor+1952+DvDrip+1CD+X264+AAC","amp;tr":["udp%3A%2F%2Ftracker.openbittorrent.com%3A80","udp%3A%2F%2Fopen.demonii.com%3A1337","udp%3A%2F%2Ftracker.coppersurfer.tk%3A6969","udp%3A%2F%2Fexodus.desync.com%3A6969"],"infoHash":"f4c8fa53de99a374167c1bb9541aa11b7cb38f69","infoHashBuffer":{"type":"Buffer","data":[244,200,250,83,222,153,163,116,22,124,27,185,84,26,161,27,124,179,143,105]},"announce":[],"urlList":[]}}